<mxfile host="app.diagrams.net" modified="2024-02-07T21:00:54.500Z" agent="Mozilla/5.0 (Windows NT 10.0; Win64; x64) AppleWebKit/537.36 (KHTML, like Gecko) Chrome/120.0.0.0 Safari/537.36" etag="5B23WMpBT-SWbj-wwk4t" version="23.1.1" type="github">
  <diagram name="PÃ¡gina-1" id="yxYmzrYGNaenrbdBNbvY">
    <mxGraphModel dx="1050" dy="530" grid="1" gridSize="10" guides="1" tooltips="1" connect="1" arrows="1" fold="1" page="1" pageScale="1" pageWidth="827" pageHeight="1169" math="0" shadow="0">
      <root>
        <mxCell id="0" />
        <mxCell id="1" parent="0" />
        <mxCell id="GLRrDsP717pOL5Z_IYUO-1" value="factura-cliente-sga-asis" style="swimlane;html=1;childLayout=stackLayout;resizeParent=1;resizeParentMax=0;horizontal=1;startSize=20;horizontalStack=0;whiteSpace=wrap;" vertex="1" parent="1">
          <mxGeometry x="100" y="90" width="1510" height="360" as="geometry" />
        </mxCell>
        <mxCell id="GLRrDsP717pOL5Z_IYUO-2" value="transformacion" style="swimlane;html=1;startSize=20;horizontal=0;" vertex="1" parent="GLRrDsP717pOL5Z_IYUO-1">
          <mxGeometry y="20" width="1510" height="140" as="geometry" />
        </mxCell>
        <mxCell id="GLRrDsP717pOL5Z_IYUO-3" style="edgeStyle=orthogonalEdgeStyle;rounded=0;orthogonalLoop=1;jettySize=auto;html=1;" edge="1" parent="GLRrDsP717pOL5Z_IYUO-2" source="GLRrDsP717pOL5Z_IYUO-4" target="GLRrDsP717pOL5Z_IYUO-5">
          <mxGeometry relative="1" as="geometry" />
        </mxCell>
        <mxCell id="GLRrDsP717pOL5Z_IYUO-4" value="" style="points=[[0.145,0.145,0],[0.5,0,0],[0.855,0.145,0],[1,0.5,0],[0.855,0.855,0],[0.5,1,0],[0.145,0.855,0],[0,0.5,0]];shape=mxgraph.bpmn.event;html=1;verticalLabelPosition=bottom;labelBackgroundColor=#ffffff;verticalAlign=top;align=center;perimeter=ellipsePerimeter;outlineConnect=0;aspect=fixed;outline=standard;symbol=general;fillColor=#ffff88;strokeColor=#36393d;" vertex="1" parent="GLRrDsP717pOL5Z_IYUO-2">
          <mxGeometry x="30" y="27.5" width="35" height="35" as="geometry" />
        </mxCell>
        <mxCell id="GLRrDsP717pOL5Z_IYUO-5" value="filtrar registro" style="points=[[0.25,0,0],[0.5,0,0],[0.75,0,0],[1,0.25,0],[1,0.5,0],[1,0.75,0],[0.75,1,0],[0.5,1,0],[0.25,1,0],[0,0.75,0],[0,0.5,0],[0,0.25,0]];shape=mxgraph.bpmn.task;whiteSpace=wrap;rectStyle=rounded;size=10;html=1;container=1;expand=0;collapsible=0;taskMarker=abstract;isLoopSub=1;fillColor=#d5e8d4;gradientColor=#97d077;strokeColor=#82b366;" vertex="1" parent="GLRrDsP717pOL5Z_IYUO-2">
          <mxGeometry x="130" y="27.5" width="100" height="50" as="geometry" />
        </mxCell>
        <mxCell id="GLRrDsP717pOL5Z_IYUO-6" style="edgeStyle=orthogonalEdgeStyle;rounded=0;orthogonalLoop=1;jettySize=auto;html=1;" edge="1" parent="GLRrDsP717pOL5Z_IYUO-2" source="GLRrDsP717pOL5Z_IYUO-7" target="GLRrDsP717pOL5Z_IYUO-10">
          <mxGeometry relative="1" as="geometry" />
        </mxCell>
        <mxCell id="GLRrDsP717pOL5Z_IYUO-7" value="realizar cruce" style="points=[[0.25,0,0],[0.5,0,0],[0.75,0,0],[1,0.25,0],[1,0.5,0],[1,0.75,0],[0.75,1,0],[0.5,1,0],[0.25,1,0],[0,0.75,0],[0,0.5,0],[0,0.25,0]];shape=mxgraph.bpmn.task;whiteSpace=wrap;rectStyle=rounded;size=10;html=1;container=1;expand=0;collapsible=0;taskMarker=abstract;isLoopSub=1;fillColor=#cdeb8b;strokeColor=#36393d;" vertex="1" parent="GLRrDsP717pOL5Z_IYUO-2">
          <mxGeometry x="314" y="27.5" width="100" height="50" as="geometry" />
        </mxCell>
        <mxCell id="GLRrDsP717pOL5Z_IYUO-8" style="edgeStyle=orthogonalEdgeStyle;rounded=0;orthogonalLoop=1;jettySize=auto;html=1;entryX=0;entryY=0.5;entryDx=0;entryDy=0;entryPerimeter=0;" edge="1" parent="GLRrDsP717pOL5Z_IYUO-2" source="GLRrDsP717pOL5Z_IYUO-5" target="GLRrDsP717pOL5Z_IYUO-7">
          <mxGeometry relative="1" as="geometry" />
        </mxCell>
        <mxCell id="GLRrDsP717pOL5Z_IYUO-9" style="edgeStyle=orthogonalEdgeStyle;rounded=0;orthogonalLoop=1;jettySize=auto;html=1;" edge="1" parent="GLRrDsP717pOL5Z_IYUO-2" source="GLRrDsP717pOL5Z_IYUO-10" target="GLRrDsP717pOL5Z_IYUO-13">
          <mxGeometry relative="1" as="geometry" />
        </mxCell>
        <mxCell id="GLRrDsP717pOL5Z_IYUO-10" value="Relacionar tabla A&lt;br&gt;FILTRO&amp;nbsp;BSCS7" style="points=[[0.25,0,0],[0.5,0,0],[0.75,0,0],[1,0.25,0],[1,0.5,0],[1,0.75,0],[0.75,1,0],[0.5,1,0],[0.25,1,0],[0,0.75,0],[0,0.5,0],[0,0.25,0]];shape=mxgraph.bpmn.task;whiteSpace=wrap;rectStyle=rounded;size=10;html=1;container=1;expand=0;collapsible=0;taskMarker=abstract;fontSize=11;fillColor=#d5e8d4;gradientColor=#97d077;strokeColor=#82b366;" vertex="1" parent="GLRrDsP717pOL5Z_IYUO-2">
          <mxGeometry x="570" y="27.5" width="110" height="50" as="geometry" />
        </mxCell>
        <mxCell id="GLRrDsP717pOL5Z_IYUO-11" value="agregar columna&lt;br&gt;cliente_numrecibocliente" style="points=[[0.25,0,0],[0.5,0,0],[0.75,0,0],[1,0.25,0],[1,0.5,0],[1,0.75,0],[0.75,1,0],[0.5,1,0],[0.25,1,0],[0,0.75,0],[0,0.5,0],[0,0.25,0]];shape=mxgraph.bpmn.task;whiteSpace=wrap;rectStyle=rounded;size=10;html=1;container=1;expand=0;collapsible=0;taskMarker=abstract;fontSize=11;fillColor=#d5e8d4;gradientColor=#97d077;strokeColor=#82b366;" vertex="1" parent="GLRrDsP717pOL5Z_IYUO-2">
          <mxGeometry x="1220" y="27.5" width="130" height="50" as="geometry" />
        </mxCell>
        <mxCell id="GLRrDsP717pOL5Z_IYUO-12" style="edgeStyle=orthogonalEdgeStyle;rounded=0;orthogonalLoop=1;jettySize=auto;html=1;" edge="1" parent="GLRrDsP717pOL5Z_IYUO-2" source="GLRrDsP717pOL5Z_IYUO-13" target="GLRrDsP717pOL5Z_IYUO-16">
          <mxGeometry relative="1" as="geometry" />
        </mxCell>
        <mxCell id="GLRrDsP717pOL5Z_IYUO-13" value="Relacionar tabla B, FILTRO&amp;nbsp;BSCSIX&amp;nbsp;" style="points=[[0.25,0,0],[0.5,0,0],[0.75,0,0],[1,0.25,0],[1,0.5,0],[1,0.75,0],[0.75,1,0],[0.5,1,0],[0.25,1,0],[0,0.75,0],[0,0.5,0],[0,0.25,0]];shape=mxgraph.bpmn.task;whiteSpace=wrap;rectStyle=rounded;size=10;html=1;container=1;expand=0;collapsible=0;taskMarker=abstract;fontSize=11;fillColor=#d5e8d4;gradientColor=#97d077;strokeColor=#82b366;" vertex="1" parent="GLRrDsP717pOL5Z_IYUO-2">
          <mxGeometry x="810" y="30" width="110" height="50" as="geometry" />
        </mxCell>
        <mxCell id="GLRrDsP717pOL5Z_IYUO-14" style="edgeStyle=orthogonalEdgeStyle;rounded=0;orthogonalLoop=1;jettySize=auto;html=1;" edge="1" parent="GLRrDsP717pOL5Z_IYUO-2" source="GLRrDsP717pOL5Z_IYUO-16" target="GLRrDsP717pOL5Z_IYUO-11">
          <mxGeometry relative="1" as="geometry" />
        </mxCell>
        <mxCell id="GLRrDsP717pOL5Z_IYUO-15" value="SI" style="edgeLabel;html=1;align=center;verticalAlign=middle;resizable=0;points=[];" vertex="1" connectable="0" parent="GLRrDsP717pOL5Z_IYUO-14">
          <mxGeometry x="0.0222" y="2" relative="1" as="geometry">
            <mxPoint x="1" y="-2" as="offset" />
          </mxGeometry>
        </mxCell>
        <mxCell id="GLRrDsP717pOL5Z_IYUO-16" value="existen registros?" style="points=[[0.25,0.25,0],[0.5,0,0],[0.75,0.25,0],[1,0.5,0],[0.75,0.75,0],[0.5,1,0],[0.25,0.75,0],[0,0.5,0]];shape=mxgraph.bpmn.gateway2;html=1;verticalLabelPosition=bottom;labelBackgroundColor=#ffffff;verticalAlign=top;align=center;perimeter=rhombusPerimeter;outlineConnect=0;outline=none;symbol=none;fillColor=#fff2cc;strokeColor=#d6b656;" vertex="1" parent="GLRrDsP717pOL5Z_IYUO-2">
          <mxGeometry x="1060" y="30" width="50" height="50" as="geometry" />
        </mxCell>
        <mxCell id="GLRrDsP717pOL5Z_IYUO-22" value="data" style="swimlane;html=1;startSize=20;horizontal=0;" vertex="1" parent="GLRrDsP717pOL5Z_IYUO-1">
          <mxGeometry y="160" width="1510" height="200" as="geometry" />
        </mxCell>
        <mxCell id="GLRrDsP717pOL5Z_IYUO-23" value="&lt;font style=&quot;font-size: 9px;&quot;&gt;SERIEFACTURACION&lt;/font&gt;" style="shape=datastore;html=1;labelPosition=center;verticalLabelPosition=bottom;align=center;verticalAlign=top;fillColor=#dae8fc;gradientColor=#7ea6e0;strokeColor=#6c8ebf;" vertex="1" parent="GLRrDsP717pOL5Z_IYUO-22">
          <mxGeometry x="140" y="20" width="65" height="70" as="geometry" />
        </mxCell>
        <mxCell id="GLRrDsP717pOL5Z_IYUO-24" value="&lt;font style=&quot;font-size: 9px;&quot;&gt;FACTURA&lt;/font&gt;" style="shape=datastore;html=1;labelPosition=center;verticalLabelPosition=bottom;align=center;verticalAlign=top;fillColor=#dae8fc;gradientColor=#7ea6e0;strokeColor=#6c8ebf;" vertex="1" parent="GLRrDsP717pOL5Z_IYUO-22">
          <mxGeometry x="370" y="20" width="65" height="70" as="geometry" />
        </mxCell>
        <mxCell id="GLRrDsP717pOL5Z_IYUO-25" value="&lt;font style=&quot;font-size: 9px;&quot;&gt;SERIEFACTURACION&lt;/font&gt;" style="shape=datastore;html=1;labelPosition=center;verticalLabelPosition=bottom;align=center;verticalAlign=top;fillColor=#dae8fc;gradientColor=#7ea6e0;strokeColor=#6c8ebf;" vertex="1" parent="GLRrDsP717pOL5Z_IYUO-22">
          <mxGeometry x="290" y="20" width="65" height="70" as="geometry" />
        </mxCell>
        <mxCell id="GLRrDsP717pOL5Z_IYUO-26" value="fact_capexvariable_deta" style="shape=datastore;html=1;labelPosition=center;verticalLabelPosition=bottom;align=center;verticalAlign=top;fillColor=#dae8fc;gradientColor=#7ea6e0;strokeColor=#6c8ebf;" vertex="1" parent="GLRrDsP717pOL5Z_IYUO-22">
          <mxGeometry x="1260" y="25" width="65" height="70" as="geometry" />
        </mxCell>
        <mxCell id="GLRrDsP717pOL5Z_IYUO-27" value="&lt;font style=&quot;font-size: 9px;&quot;&gt;ACTIVO&lt;/font&gt;" style="shape=datastore;html=1;labelPosition=center;verticalLabelPosition=bottom;align=center;verticalAlign=top;fillColor=#dae8fc;gradientColor=#7ea6e0;strokeColor=#6c8ebf;" vertex="1" parent="GLRrDsP717pOL5Z_IYUO-22">
          <mxGeometry x="513" y="25" width="65" height="70" as="geometry" />
        </mxCell>
        <mxCell id="GLRrDsP717pOL5Z_IYUO-28" value="&lt;font style=&quot;font-size: 9px;&quot;&gt;FACTURA&lt;/font&gt;" style="shape=datastore;html=1;labelPosition=center;verticalLabelPosition=bottom;align=center;verticalAlign=top;fillColor=#dae8fc;gradientColor=#7ea6e0;strokeColor=#6c8ebf;" vertex="1" parent="GLRrDsP717pOL5Z_IYUO-22">
          <mxGeometry x="589" y="25" width="65" height="70" as="geometry" />
        </mxCell>
        <mxCell id="GLRrDsP717pOL5Z_IYUO-29" value="CLIENTEBSCSIX" style="shape=datastore;html=1;labelPosition=center;verticalLabelPosition=bottom;align=center;verticalAlign=top;fontSize=9;fillColor=#dae8fc;gradientColor=#7ea6e0;strokeColor=#6c8ebf;" vertex="1" parent="GLRrDsP717pOL5Z_IYUO-22">
          <mxGeometry x="670" y="25" width="65" height="70" as="geometry" />
        </mxCell>
        <mxCell id="GLRrDsP717pOL5Z_IYUO-30" value="&lt;font style=&quot;font-size: 9px;&quot;&gt;ACTIVO&lt;/font&gt;" style="shape=datastore;html=1;labelPosition=center;verticalLabelPosition=bottom;align=center;verticalAlign=top;fillColor=#dae8fc;gradientColor=#7ea6e0;strokeColor=#6c8ebf;" vertex="1" parent="GLRrDsP717pOL5Z_IYUO-22">
          <mxGeometry x="796" y="20" width="65" height="70" as="geometry" />
        </mxCell>
        <mxCell id="GLRrDsP717pOL5Z_IYUO-31" value="&lt;font style=&quot;font-size: 9px;&quot;&gt;FACTURA&lt;/font&gt;" style="shape=datastore;html=1;labelPosition=center;verticalLabelPosition=bottom;align=center;verticalAlign=top;fillColor=#dae8fc;gradientColor=#7ea6e0;strokeColor=#6c8ebf;" vertex="1" parent="GLRrDsP717pOL5Z_IYUO-22">
          <mxGeometry x="870" y="20" width="65" height="70" as="geometry" />
        </mxCell>
        <mxCell id="GLRrDsP717pOL5Z_IYUO-32" value="CLIENTEBSCSIX" style="shape=datastore;html=1;labelPosition=center;verticalLabelPosition=bottom;align=center;verticalAlign=top;fontSize=9;fillColor=#dae8fc;gradientColor=#7ea6e0;strokeColor=#6c8ebf;" vertex="1" parent="GLRrDsP717pOL5Z_IYUO-22">
          <mxGeometry x="950" y="20" width="65" height="70" as="geometry" />
        </mxCell>
        <mxCell id="GLRrDsP717pOL5Z_IYUO-39" value="" style="edgeStyle=elbowEdgeStyle;fontSize=12;html=1;endFill=0;startFill=0;endSize=6;startSize=6;dashed=1;dashPattern=1 4;endArrow=openThin;startArrow=none;rounded=0;" edge="1" parent="GLRrDsP717pOL5Z_IYUO-1" source="GLRrDsP717pOL5Z_IYUO-26" target="GLRrDsP717pOL5Z_IYUO-11">
          <mxGeometry width="160" relative="1" as="geometry">
            <mxPoint x="1100" y="190" as="sourcePoint" />
            <mxPoint x="1120" y="190" as="targetPoint" />
          </mxGeometry>
        </mxCell>
        <mxCell id="GLRrDsP717pOL5Z_IYUO-40" value="" style="edgeStyle=elbowEdgeStyle;fontSize=12;html=1;endFill=0;startFill=0;endSize=6;startSize=6;dashed=1;dashPattern=1 4;endArrow=openThin;startArrow=none;rounded=0;exitX=0.5;exitY=0;exitDx=0;exitDy=0;" edge="1" parent="GLRrDsP717pOL5Z_IYUO-1" source="GLRrDsP717pOL5Z_IYUO-24" target="GLRrDsP717pOL5Z_IYUO-7">
          <mxGeometry width="160" relative="1" as="geometry">
            <mxPoint x="520" y="190" as="sourcePoint" />
            <mxPoint x="680" y="190" as="targetPoint" />
          </mxGeometry>
        </mxCell>
        <mxCell id="GLRrDsP717pOL5Z_IYUO-41" value="" style="edgeStyle=elbowEdgeStyle;fontSize=12;html=1;endFill=0;startFill=0;endSize=6;startSize=6;dashed=1;dashPattern=1 4;endArrow=openThin;startArrow=none;rounded=0;exitX=0.5;exitY=0;exitDx=0;exitDy=0;entryX=0.36;entryY=1.002;entryDx=0;entryDy=0;entryPerimeter=0;" edge="1" parent="GLRrDsP717pOL5Z_IYUO-1" source="GLRrDsP717pOL5Z_IYUO-25" target="GLRrDsP717pOL5Z_IYUO-7">
          <mxGeometry width="160" relative="1" as="geometry">
            <mxPoint x="520" y="190" as="sourcePoint" />
            <mxPoint x="680" y="190" as="targetPoint" />
          </mxGeometry>
        </mxCell>
        <mxCell id="GLRrDsP717pOL5Z_IYUO-42" value="" style="edgeStyle=elbowEdgeStyle;fontSize=12;html=1;endFill=0;startFill=0;endSize=6;startSize=6;dashed=1;dashPattern=1 4;endArrow=openThin;startArrow=none;rounded=0;exitX=0.5;exitY=0;exitDx=0;exitDy=0;" edge="1" parent="GLRrDsP717pOL5Z_IYUO-1" source="GLRrDsP717pOL5Z_IYUO-23" target="GLRrDsP717pOL5Z_IYUO-5">
          <mxGeometry width="160" relative="1" as="geometry">
            <mxPoint x="400" y="190" as="sourcePoint" />
            <mxPoint x="560" y="190" as="targetPoint" />
          </mxGeometry>
        </mxCell>
        <mxCell id="GLRrDsP717pOL5Z_IYUO-48" value="" style="edgeStyle=elbowEdgeStyle;fontSize=12;html=1;endFill=0;startFill=0;endSize=6;startSize=6;dashed=1;dashPattern=1 4;endArrow=openThin;startArrow=none;rounded=0;exitX=0.5;exitY=0;exitDx=0;exitDy=0;" edge="1" parent="GLRrDsP717pOL5Z_IYUO-1" source="GLRrDsP717pOL5Z_IYUO-27" target="GLRrDsP717pOL5Z_IYUO-10">
          <mxGeometry width="160" relative="1" as="geometry">
            <mxPoint x="610" y="190" as="sourcePoint" />
            <mxPoint x="770" y="190" as="targetPoint" />
          </mxGeometry>
        </mxCell>
        <mxCell id="GLRrDsP717pOL5Z_IYUO-49" value="" style="edgeStyle=elbowEdgeStyle;fontSize=12;html=1;endFill=0;startFill=0;endSize=6;startSize=6;dashed=1;dashPattern=1 4;endArrow=openThin;startArrow=none;rounded=0;entryX=0.75;entryY=1;entryDx=0;entryDy=0;entryPerimeter=0;exitX=0.5;exitY=0;exitDx=0;exitDy=0;" edge="1" parent="GLRrDsP717pOL5Z_IYUO-1" source="GLRrDsP717pOL5Z_IYUO-29" target="GLRrDsP717pOL5Z_IYUO-10">
          <mxGeometry width="160" relative="1" as="geometry">
            <mxPoint x="610" y="190" as="sourcePoint" />
            <mxPoint x="770" y="190" as="targetPoint" />
          </mxGeometry>
        </mxCell>
        <mxCell id="GLRrDsP717pOL5Z_IYUO-50" value="" style="edgeStyle=elbowEdgeStyle;fontSize=12;html=1;endFill=0;startFill=0;endSize=6;startSize=6;dashed=1;dashPattern=1 4;endArrow=openThin;startArrow=none;rounded=0;exitX=0.5;exitY=0;exitDx=0;exitDy=0;" edge="1" parent="GLRrDsP717pOL5Z_IYUO-1" source="GLRrDsP717pOL5Z_IYUO-30" target="GLRrDsP717pOL5Z_IYUO-13">
          <mxGeometry width="160" relative="1" as="geometry">
            <mxPoint x="610" y="190" as="sourcePoint" />
            <mxPoint x="770" y="190" as="targetPoint" />
          </mxGeometry>
        </mxCell>
        <mxCell id="GLRrDsP717pOL5Z_IYUO-51" value="" style="edgeStyle=elbowEdgeStyle;fontSize=12;html=1;endFill=0;startFill=0;endSize=6;startSize=6;dashed=1;dashPattern=1 4;endArrow=openThin;startArrow=none;rounded=0;entryX=0.575;entryY=0.984;entryDx=0;entryDy=0;entryPerimeter=0;exitX=0.345;exitY=-0.034;exitDx=0;exitDy=0;exitPerimeter=0;" edge="1" parent="GLRrDsP717pOL5Z_IYUO-1" source="GLRrDsP717pOL5Z_IYUO-31" target="GLRrDsP717pOL5Z_IYUO-13">
          <mxGeometry width="160" relative="1" as="geometry">
            <mxPoint x="610" y="190" as="sourcePoint" />
            <mxPoint x="770" y="190" as="targetPoint" />
          </mxGeometry>
        </mxCell>
        <mxCell id="GLRrDsP717pOL5Z_IYUO-52" value="" style="edgeStyle=elbowEdgeStyle;fontSize=12;html=1;endFill=0;startFill=0;endSize=6;startSize=6;dashed=1;dashPattern=1 4;endArrow=openThin;startArrow=none;rounded=0;entryX=0.75;entryY=1;entryDx=0;entryDy=0;entryPerimeter=0;exitX=0.382;exitY=0.034;exitDx=0;exitDy=0;exitPerimeter=0;" edge="1" parent="GLRrDsP717pOL5Z_IYUO-1" source="GLRrDsP717pOL5Z_IYUO-32" target="GLRrDsP717pOL5Z_IYUO-13">
          <mxGeometry width="160" relative="1" as="geometry">
            <mxPoint x="610" y="190" as="sourcePoint" />
            <mxPoint x="770" y="190" as="targetPoint" />
          </mxGeometry>
        </mxCell>
      </root>
    </mxGraphModel>
  </diagram>
</mxfile>
